<svg xmlns="http://www.w3.org/2000/svg" width="90.441" height="28.351" viewBox="0 0 90.441 28.351">
  <path id="Path_1255" data-name="Path 1255" d="M0,11.518H3.68v8.941A3.272,3.272,0,0,0,7.025,23.9a3.292,3.292,0,0,0,3.346-3.467v-8.91h3.68v9.154a6.053,6.053,0,0,1-2.007,4.9,7.552,7.552,0,0,1-5.05,1.673,7.4,7.4,0,0,1-5.017-1.673A5.974,5.974,0,0,1,0,20.763V11.518ZM45.866,22.63a5.57,5.57,0,0,1-3.83,1.478c-2.64,0-4.41-1.5-4.61-3.833h11.89s.08-.752.08-1.458a7.617,7.617,0,0,0-2.13-5.505,7.127,7.127,0,0,0-5.443-2.22,7.667,7.667,0,0,0-8.029,8.09v.12a7.606,7.606,0,0,0,2.25,5.749,8.169,8.169,0,0,0,5.87,2.159,8.564,8.564,0,0,0,6.685-3L45.866,22.63Zm-6.994-7.463a4.709,4.709,0,0,1,2.95-.973,3.925,3.925,0,0,1,2.707,1,2.992,2.992,0,0,1,1.152,2.22H37.52a3.341,3.341,0,0,1,1.353-2.25ZM82.91,29.276C81.417,32.8,79.855,34,77.46,34H75.8V30.738h1.342c.824,0,1.59-.31,2.32-1.994l.73-1.686-6.3-15.54h3.741L82.108,22.71,86.7,11.518h3.74l-7.53,17.758ZM28.377,5.649v7.257a7.579,7.579,0,0,0-4.9-1.723,7.285,7.285,0,0,0-5.474,2.31,7.872,7.872,0,0,0-2.19,5.687,7.993,7.993,0,0,0,2.19,5.718,7.368,7.368,0,0,0,5.474,2.282,7.047,7.047,0,0,0,4.9-1.746v1.411h3.65V5.65h-3.65ZM27.282,22.527a4.542,4.542,0,0,1-3.315,1.339,4.4,4.4,0,0,1-3.254-1.339,4.643,4.643,0,0,1-1.277-3.345,4.64,4.64,0,0,1,1.277-3.346A4.4,4.4,0,0,1,23.967,14.5a4.541,4.541,0,0,1,3.315,1.338,4.474,4.474,0,0,1,1.37,3.346A4.473,4.473,0,0,1,27.282,22.527Zm40.94-11.313a6.386,6.386,0,0,0-5.2,2.258,4.345,4.345,0,0,0-4.1-2.258,5.171,5.171,0,0,0-4.136,1.9V11.52H51.163V26.847h3.618v-8.82c0-2.068,1.278-3.558,2.98-3.558,1.735,0,2.738,1.308,2.738,3.406v8.971h3.619v-8.82c0-2.1,1.246-3.558,3.04-3.558,1.734,0,2.737,1.308,2.737,3.405v8.972h3.65V17.357c0-4-2.148-6.142-5.323-6.142Z" transform="translate(0 -5.649)"/>
</svg>
